<svg xmlns="http://www.w3.org/2000/svg" xmlns:xlink="http://www.w3.org/1999/xlink" version="1.1" x="0px" y="0px" viewBox="0 0 100 125" style="enable-background:new 0 0 100 100;" xml:space="preserve"><g><path d="M35.5,69.5c-1.6,3.5-2.2,7.2-2.2,11.1c-1.8,1.9-3.8,3.2-5.2,6.7C26,90.1,43.6,91,43.9,88.5   c0.3-4.7,2.6-8,5.7-10.7C46.4,72.8,42.2,69.3,35.5,69.5z"/><path d="M94.2,80.5c-1.5-10.7-2.5-21.4-16-32.7c0.9-0.2,1.8,0.3,2.6,1.1c1.1-0.8-0.8-5.2-4.3-2.8   c-5.9-4.7-11.5-6.7-16.6-7c-2,4.4-1.5,9.2-1.7,13.1c-1-3.5-1.2-7.9,0.4-14.1c2.5-1.4,5.9-4.3,2.3-11.1c2.5-4.1,5-8.2,4.3-14.5   c0.9-2.2-2-3.6-4-3.5v0c-0.9,0-1.6,0.4-1.6,1.1c-2.7,0.2-4.9,1.5-6.8,3c-2.3-1.7-4.5-1.7-6.6,0.6c-2.8-0.2-5.6,2-8.3,3.8   c0,0-3.5-4.1-5.3-3.3c-2.8,1.4-1.5,8.9-1.5,8.9C18.4,39.1,8.7,56.8,7.2,79.8c-2.2,1.6-5.9,4.3-6.5,9.1c0,2.6,13.5,2.7,17.1-0.1   c0,0,1.9-20.4,17.5-20.4C52.8,68.4,53.9,89,53.9,89c2.9,1.2,7.6,4,17.1-0.5c-0.6-4.1-3.3-6.6-6.4-8.8c0.7-6.1-0.4-11.6-3.6-16.4   c2.3,1.9,3.9,6.1,3.8,7.3c9.6,2.3,16.3,8.1,18.8,17.5c2.1,2,10.3,4.6,15.7,0.3C98.5,84.4,96.3,82.8,94.2,80.5z M61.6,13.7   c2.2-0.1,3.2,2.1,0.8,7.7c1.5-8.5-3.7-6.4-9.7,0.3C55.1,17,59.1,13.8,61.6,13.7z M52.4,27.5c5,6.9,9.4,8.8,7.9,0.3   C65.3,39.8,55.4,35.9,52.4,27.5z"/></g></svg>